<mxfile host="app.diagrams.net" agent="Mozilla/5.0 (Windows NT 10.0; Win64; x64) AppleWebKit/537.36 (KHTML, like Gecko) Chrome/140.0.0.0 Safari/537.36" version="28.2.5">
  <diagram name="PÃ¡gina-1" id="lBE9rgle0jzEVgYZUHpi">
    <mxGraphModel dx="1901" dy="991" grid="1" gridSize="10" guides="1" tooltips="1" connect="1" arrows="1" fold="1" page="1" pageScale="1" pageWidth="827" pageHeight="1169" math="0" shadow="0">
      <root>
        <mxCell id="0" />
        <mxCell id="1" parent="0" />
        <mxCell id="eYgHK70Uyl9Cc7gDJu4a-1" value="Inicio" style="strokeWidth=2;html=1;shape=mxgraph.flowchart.terminator;whiteSpace=wrap;" vertex="1" parent="1">
          <mxGeometry x="364" y="290" width="100" height="60" as="geometry" />
        </mxCell>
        <mxCell id="eYgHK70Uyl9Cc7gDJu4a-2" value="&lt;div&gt;FIn&lt;/div&gt;" style="strokeWidth=2;html=1;shape=mxgraph.flowchart.terminator;whiteSpace=wrap;" vertex="1" parent="1">
          <mxGeometry x="364" y="1030" width="100" height="60" as="geometry" />
        </mxCell>
        <mxCell id="eYgHK70Uyl9Cc7gDJu4a-3" style="edgeStyle=orthogonalEdgeStyle;rounded=0;orthogonalLoop=1;jettySize=auto;html=1;" edge="1" parent="1" source="eYgHK70Uyl9Cc7gDJu4a-4" target="eYgHK70Uyl9Cc7gDJu4a-5">
          <mxGeometry relative="1" as="geometry" />
        </mxCell>
        <mxCell id="eYgHK70Uyl9Cc7gDJu4a-4" value="Por favor ponga su nombre" style="strokeWidth=2;html=1;shape=mxgraph.flowchart.document2;whiteSpace=wrap;size=0.25;" vertex="1" parent="1">
          <mxGeometry x="314" y="450" width="200" height="100" as="geometry" />
        </mxCell>
        <mxCell id="eYgHK70Uyl9Cc7gDJu4a-5" value="&lt;font style=&quot;color: light-dark(rgb(0, 0, 0), rgb(255, 0, 0));&quot;&gt;Nombre&lt;/font&gt;" style="shape=parallelogram;html=1;strokeWidth=2;perimeter=parallelogramPerimeter;whiteSpace=wrap;rounded=1;arcSize=12;size=0.23;" vertex="1" parent="1">
          <mxGeometry x="329" y="585" width="170" height="60" as="geometry" />
        </mxCell>
        <mxCell id="eYgHK70Uyl9Cc7gDJu4a-6" value="&quot;Pasa &quot;, &lt;font style=&quot;color: light-dark(rgb(0, 0, 0), rgb(255, 0, 0));&quot;&gt;Nombre&lt;/font&gt;" style="strokeWidth=2;html=1;shape=mxgraph.flowchart.document2;whiteSpace=wrap;size=0.25;" vertex="1" parent="1">
          <mxGeometry x="204" y="790" width="100" height="60" as="geometry" />
        </mxCell>
        <mxCell id="eYgHK70Uyl9Cc7gDJu4a-13" style="edgeStyle=orthogonalEdgeStyle;rounded=0;orthogonalLoop=1;jettySize=auto;html=1;entryX=0.5;entryY=0;entryDx=0;entryDy=0;entryPerimeter=0;" edge="1" parent="1" source="eYgHK70Uyl9Cc7gDJu4a-9" target="eYgHK70Uyl9Cc7gDJu4a-10">
          <mxGeometry relative="1" as="geometry">
            <mxPoint x="590" y="780" as="targetPoint" />
          </mxGeometry>
        </mxCell>
        <mxCell id="eYgHK70Uyl9Cc7gDJu4a-14" value="False" style="edgeLabel;html=1;align=center;verticalAlign=middle;resizable=0;points=[];" vertex="1" connectable="0" parent="eYgHK70Uyl9Cc7gDJu4a-13">
          <mxGeometry x="0.0718" y="1" relative="1" as="geometry">
            <mxPoint as="offset" />
          </mxGeometry>
        </mxCell>
        <mxCell id="eYgHK70Uyl9Cc7gDJu4a-9" value="&lt;font style=&quot;color: light-dark(rgb(0, 0, 0), rgb(255, 0, 0));&quot;&gt;Nombre &lt;/font&gt;== &quot;Maria&quot;" style="strokeWidth=2;html=1;shape=mxgraph.flowchart.decision;whiteSpace=wrap;" vertex="1" parent="1">
          <mxGeometry x="304" y="660" width="226" height="100" as="geometry" />
        </mxCell>
        <mxCell id="eYgHK70Uyl9Cc7gDJu4a-10" value="&quot;No estas autorizado&amp;nbsp; &quot;, &lt;font style=&quot;color: light-dark(rgb(0, 0, 0), rgb(255, 0, 0));&quot;&gt;Nombre&lt;/font&gt;" style="strokeWidth=2;html=1;shape=mxgraph.flowchart.document2;whiteSpace=wrap;size=0.25;" vertex="1" parent="1">
          <mxGeometry x="537" y="790" width="203" height="60" as="geometry" />
        </mxCell>
        <mxCell id="eYgHK70Uyl9Cc7gDJu4a-11" style="edgeStyle=orthogonalEdgeStyle;rounded=0;orthogonalLoop=1;jettySize=auto;html=1;exitX=0;exitY=0.5;exitDx=0;exitDy=0;exitPerimeter=0;entryX=0.5;entryY=0;entryDx=0;entryDy=0;entryPerimeter=0;" edge="1" parent="1" source="eYgHK70Uyl9Cc7gDJu4a-9" target="eYgHK70Uyl9Cc7gDJu4a-6">
          <mxGeometry relative="1" as="geometry" />
        </mxCell>
        <mxCell id="eYgHK70Uyl9Cc7gDJu4a-15" value="True" style="edgeLabel;html=1;align=center;verticalAlign=middle;resizable=0;points=[];" vertex="1" connectable="0" parent="eYgHK70Uyl9Cc7gDJu4a-11">
          <mxGeometry x="0.04" y="4" relative="1" as="geometry">
            <mxPoint as="offset" />
          </mxGeometry>
        </mxCell>
        <mxCell id="eYgHK70Uyl9Cc7gDJu4a-16" style="edgeStyle=orthogonalEdgeStyle;rounded=0;orthogonalLoop=1;jettySize=auto;html=1;entryX=0.5;entryY=0;entryDx=0;entryDy=0;entryPerimeter=0;" edge="1" parent="1" source="eYgHK70Uyl9Cc7gDJu4a-6" target="eYgHK70Uyl9Cc7gDJu4a-2">
          <mxGeometry relative="1" as="geometry" />
        </mxCell>
        <mxCell id="eYgHK70Uyl9Cc7gDJu4a-17" style="edgeStyle=orthogonalEdgeStyle;rounded=0;orthogonalLoop=1;jettySize=auto;html=1;entryX=0.5;entryY=0;entryDx=0;entryDy=0;entryPerimeter=0;" edge="1" parent="1" source="eYgHK70Uyl9Cc7gDJu4a-10" target="eYgHK70Uyl9Cc7gDJu4a-2">
          <mxGeometry relative="1" as="geometry" />
        </mxCell>
        <mxCell id="eYgHK70Uyl9Cc7gDJu4a-18" style="edgeStyle=orthogonalEdgeStyle;rounded=0;orthogonalLoop=1;jettySize=auto;html=1;entryX=0.5;entryY=0;entryDx=0;entryDy=0;entryPerimeter=0;" edge="1" parent="1" source="eYgHK70Uyl9Cc7gDJu4a-1" target="eYgHK70Uyl9Cc7gDJu4a-4">
          <mxGeometry relative="1" as="geometry" />
        </mxCell>
      </root>
    </mxGraphModel>
  </diagram>
</mxfile>
